<mxfile host="app.diagrams.net" modified="2023-06-23T14:18:28.481Z" agent="Mozilla/5.0 (Windows NT 10.0; Win64; x64) AppleWebKit/537.36 (KHTML, like Gecko) Chrome/113.0.0.0 Safari/537.36 OPR/99.0.0.0 (Edition Yx GX)" etag="N9cyg3hUL_cT0fycJJUP" version="21.5.0" type="github">
  <diagram name="Страница 1" id="Ohlh-IQgrTPlPYOMPm_T">
    <mxGraphModel dx="1393" dy="789" grid="1" gridSize="10" guides="1" tooltips="1" connect="1" arrows="1" fold="1" page="1" pageScale="1" pageWidth="1169" pageHeight="827" math="0" shadow="0">
      <root>
        <mxCell id="0" />
        <mxCell id="1" parent="0" />
        <mxCell id="9w5pJ89aPocc1VvUrkY7-5" value="Пользователь&lt;br&gt;" style="swimlane;startSize=20;horizontal=0;html=1;whiteSpace=wrap;" vertex="1" parent="1">
          <mxGeometry width="820" height="400" as="geometry" />
        </mxCell>
        <mxCell id="9w5pJ89aPocc1VvUrkY7-6" value="Приложение&lt;br&gt;" style="swimlane;startSize=20;horizontal=0;html=1;whiteSpace=wrap;" vertex="1" parent="1">
          <mxGeometry y="440" width="820" height="387" as="geometry" />
        </mxCell>
      </root>
    </mxGraphModel>
  </diagram>
</mxfile>
